<svg width="137" height="106" viewBox="0 0 137 106" fill="none" xmlns="http://www.w3.org/2000/svg">
<path opacity="0.3" d="M66.2733 100C90.8193 100 110.718 80.1018 110.718 55.5558C110.718 31.0098 90.8193 11.1113 66.2733 11.1113C41.7273 11.1113 21.8289 31.0098 21.8289 55.5558C21.8289 80.1018 41.7273 100 66.2733 100Z" fill="#EA868F"/>
<path d="M115.561 77.4145C115.561 80.8478 112.773 83.6364 109.34 83.6364C105.906 83.6364 103.118 80.8478 103.118 77.4145C103.118 73.9812 105.906 71.1926 109.34 71.1926C112.773 71.1926 115.561 73.9662 115.561 77.4145Z" fill="#2D2D2D"/>
<path d="M53.8973 77.4145C53.8973 80.8478 51.1087 83.6364 47.6755 83.6364C44.2422 83.6364 41.4536 80.8478 41.4536 77.4145C41.4536 73.9812 44.2422 71.1926 47.6755 71.1926C51.1087 71.1926 53.8973 73.9662 53.8973 77.4145Z" fill="#2D2D2D"/>
<path d="M135.846 60.458C136.071 45.6005 135.257 48.9288 135.257 45.1507C133.638 39.7534 130.464 36.2947 127.169 36.2947C123.874 36.2947 122.062 36.2947 111.219 36.2947L5.72199 36.2947C3.176 36.2947 1.03437 39.0188 0.390381 41.3726C21.2975 41.3726 68.6712 41.3726 74.3622 41.3726C81.8504 41.3726 83.6873 41.3726 87.7609 41.3726C91.8494 41.3726 94.5233 43.1567 95.3171 47.3097C96.1258 51.5525 96.8777 62.3171 97.2071 79.1237L135.816 77.6694C135.816 77.6544 135.741 67.2346 135.846 60.458Z" fill="#EA868F"/>
<path d="M89.5715 40.8329C85.4787 40.8329 78.7923 40.8329 71.2964 40.8329C65.5994 40.8329 21.4483 40.8329 0.519602 40.8329C0.399667 41.1351 0.324707 41.447 0.324707 41.7785V73.3666L8.82788 78.6139L97.476 78.0892C97.1462 67.1711 96.5127 47.6469 95.7032 44.8784C94.8936 42.1879 93.6493 40.8329 89.5715 40.8329Z" fill="#F28773"/>
<path d="M59.1012 77.5198L71.8483 77.5345C72.1603 77.1528 72.3534 76.9179 72.3534 76.9179C72.3534 76.9179 75.1465 59.3755 63.5434 59.3755C53.0852 56.6129 47.8209 51.6275 34.3276 51.6275C20.8344 51.6275 20.8344 42.4521 20.8344 40.8329H5.72198C6.53471 47.4059 9.15399 59.8305 17.1309 59.8305H45.6707C49.2512 59.8305 59.1012 61.3279 59.1012 77.5198Z" fill="white"/>
<path d="M1.05504 68.8988C1.05504 68.8988 -0.115278 72.0643 0.506919 74.9133C1.05504 77.3854 3.38088 79.541 7.45478 79.6465C11.5287 79.752 92.8587 79.6465 132.931 79.6465C135.257 79.6465 135.257 76.4358 135.257 76.4358C135.257 76.4358 40.446 76.4358 8.83251 76.4358C3.6179 76.4508 1.05504 72.818 1.05504 68.8988Z" fill="#2D2D2D"/>
<path d="M24.3471 77.4146C24.3471 80.8478 21.5585 83.6364 18.1253 83.6364C14.692 83.6364 11.9034 80.8478 11.9034 77.4146C11.9034 73.9813 14.692 71.1927 18.1253 71.1927C21.5585 71.1777 24.3471 73.9663 24.3471 77.4146Z" fill="#2D2D2D"/>
<path d="M21.8734 77.4146C21.8734 79.4985 20.1942 81.1777 18.1103 81.1777C16.0263 81.1777 14.3472 79.4985 14.3472 77.4146C14.3472 75.3306 16.0263 73.6515 18.1103 73.6515C20.1942 73.6365 21.8734 75.3306 21.8734 77.4146Z" fill="#EA868F"/>
<path d="M19.4146 77.4146C19.4146 78.1342 18.8299 78.7189 18.1103 78.7189C17.3906 78.7189 16.8059 78.1342 16.8059 77.4146C16.8059 76.6949 17.3906 76.1102 18.1103 76.1102C18.8299 76.1102 19.4146 76.6949 19.4146 77.4146Z" fill="#2D2D2D"/>
<path d="M39.2197 77.4145C39.2197 80.8478 36.4311 83.6364 32.9978 83.6364C29.5645 83.6364 26.7759 80.8478 26.7759 77.4145C26.7759 73.9812 29.5645 71.1926 32.9978 71.1926C36.4311 71.1926 39.2197 73.9662 39.2197 77.4145Z" fill="#2D2D2D"/>
<path d="M36.7459 77.4145C36.7459 79.4984 35.0668 81.1776 32.9828 81.1776C30.8989 81.1776 29.2197 79.4984 29.2197 77.4145C29.2197 75.3305 30.8989 73.6513 32.9828 73.6513C35.0668 73.6364 36.7459 75.3305 36.7459 77.4145Z" fill="#EA868F"/>
<path d="M34.2871 77.4145C34.2871 78.1341 33.7024 78.7188 32.9828 78.7188C32.2631 78.7188 31.6784 78.1341 31.6784 77.4145C31.6784 76.6948 32.2631 76.1101 32.9828 76.1101C33.7024 76.1101 34.2871 76.6948 34.2871 77.4145Z" fill="#2D2D2D"/>
<path d="M78.8598 77.4146C78.8598 80.8478 76.0712 83.6364 72.6379 83.6364C69.2047 83.6364 66.416 80.8478 66.416 77.4146C66.416 73.9813 69.2047 71.1927 72.6379 71.1927C76.0712 71.1777 78.8598 73.9663 78.8598 77.4146Z" fill="#2D2D2D"/>
<path d="M76.4011 77.4146C76.4011 79.4985 74.722 81.1777 72.638 81.1777C70.554 81.1777 68.8749 79.4985 68.8749 77.4146C68.8749 75.3306 70.554 73.6515 72.638 73.6515C74.707 73.6365 76.4011 75.3306 76.4011 77.4146Z" fill="#EA868F"/>
<path d="M73.9273 77.4146C73.9273 78.1342 73.3426 78.7189 72.6229 78.7189C71.9033 78.7189 71.3186 78.1342 71.3186 77.4146C71.3186 76.6949 71.9033 76.1102 72.6229 76.1102C73.3426 76.1102 73.9273 76.6949 73.9273 77.4146Z" fill="#2D2D2D"/>
<path d="M98.7549 71.4326C98.8598 72.1972 99.5045 75.0608 103.268 75.0608H109.325V71.4326H98.7549Z" fill="white"/>
<path d="M131.109 71.4326V75.0608H135.816L135.801 71.4326H131.109Z" fill="white"/>
<path d="M91.9782 63.3816H5.12677V53.8314C5.12677 50.8179 7.57055 48.3892 10.569 48.3892H86.7758C89.6394 48.3892 91.9782 50.713 91.9782 53.5916V63.3816Z" fill="#2D2D2D"/>
<path d="M87.2406 49.5735H77.5405H22.7429C19.0548 49.5735 16.0713 52.557 16.0713 56.2451V59.9632H77.5255V78.0292H91.9782V54.3261C91.9782 51.7024 89.8493 49.5735 87.2406 49.5735Z" fill="#2D2D2D"/>
<path d="M15.7714 55.9297V52.1666H12.3232C10.1792 52.1666 8.4551 53.8308 8.30518 55.9297H15.7714Z" fill="white"/>
<path d="M28.0803 52.1672H20.584V55.9304H28.0803V52.1672Z" fill="white"/>
<path d="M39.9243 52.1672H32.4281V55.9304H39.9243V52.1672Z" fill="white"/>
<path d="M52.3081 52.1672H44.8119V55.9304H52.3081V52.1672Z" fill="white"/>
<path d="M64.1372 52.1672H56.641V55.9304H64.1372V52.1672Z" fill="white"/>
<path d="M75.9663 52.1672H68.4701V55.9304H75.9663V52.1672Z" fill="white"/>
<path d="M87.7954 55.9303V55.4206C87.7954 53.6215 86.3411 52.1522 84.527 52.1522H80.2841V55.9303H87.7954Z" fill="white"/>
<path d="M135.257 44.9558H103.552C103.777 47.2796 103.972 49.6035 104.107 51.8224C104.587 59.8583 106.041 65.4355 108.485 68.9888C110.689 69.0637 113.163 69.0637 115.756 69.0487C123.822 69.0038 135.846 68.8988 135.846 68.8988C135.846 68.8988 136.891 54.0862 135.257 44.9558Z" fill="#2D2D2D"/>
<path d="M103.552 44.9558H100.674C99.5644 44.9558 98.6799 45.9003 98.7398 47.0098C99.0697 52.587 99.8643 65.7054 100.089 66.6349C100.494 68.2841 103.852 68.8239 108.485 69.0038C106.041 65.4505 104.587 59.8733 104.107 51.8374C103.972 49.6035 103.792 47.2796 103.552 44.9558Z" fill="white"/>
<path opacity="0.3" d="M101.69 15.278C105.909 15.278 109.329 11.858 109.329 7.63913C109.329 3.42029 105.909 0.000244141 101.69 0.000244141C97.4711 0.000244141 94.0511 3.42029 94.0511 7.63913C94.0511 11.858 97.4711 15.278 101.69 15.278Z" fill="#EA868F"/>
<path opacity="0.3" d="M29.8246 106C32.3099 106 34.3246 103.986 34.3246 101.5C34.3246 99.015 32.3099 97.0002 29.8246 97.0002C27.3393 97.0002 25.3246 99.015 25.3246 101.5C25.3246 103.986 27.3393 106 29.8246 106Z" fill="#EA868F"/>
<path opacity="0.3" d="M101.825 102C103.205 102 104.325 100.881 104.325 99.5002C104.325 98.1195 103.205 97.0002 101.825 97.0002C100.444 97.0002 99.3246 98.1195 99.3246 99.5002C99.3246 100.881 100.444 102 101.825 102Z" fill="#EA868F"/>
</svg>
