<svg width="142" height="124" viewBox="0 0 142 124" fill="none" xmlns="http://www.w3.org/2000/svg">
<path opacity="0.3" d="M65.6944 118C90.2404 118 110.139 98.1018 110.139 73.5558C110.139 49.0098 90.2404 29.1113 65.6944 29.1113C41.1485 29.1113 21.25 49.0098 21.25 73.5558C21.25 98.1018 41.1485 118 65.6944 118Z" fill="#EA868F"/>
<path opacity="0.3" d="M101.111 33.278C105.33 33.278 108.75 29.858 108.75 25.6391C108.75 21.4203 105.33 18.0002 101.111 18.0002C96.8923 18.0002 93.4722 21.4203 93.4722 25.6391C93.4722 29.858 96.8923 33.278 101.111 33.278Z" fill="#EA868F"/>
<path opacity="0.3" d="M29.2457 124C31.731 124 33.7457 121.986 33.7457 119.5C33.7457 117.015 31.731 115 29.2457 115C26.7604 115 24.7457 117.015 24.7457 119.5C24.7457 121.986 26.7604 124 29.2457 124Z" fill="#EA868F"/>
<path opacity="0.3" d="M101.246 120C102.626 120 103.746 118.881 103.746 117.5C103.746 116.12 102.626 115 101.246 115C99.865 115 98.7457 116.12 98.7457 117.5C98.7457 118.881 99.865 120 101.246 120Z" fill="#EA868F"/>
<path d="M77.4537 98.5764H51.7787V105.459H77.4537V98.5764Z" fill="#F28773"/>
<path d="M104.441 100.824H25.0631C22.408 100.824 20.25 98.6786 20.25 96.0269V41.7978C20.25 39.1512 22.4028 37.0002 25.0631 37.0002H104.441C107.096 37.0002 109.254 39.1461 109.254 41.7978V96.0269C109.254 98.6786 107.101 100.824 104.441 100.824Z" fill="#F28773"/>
<path d="M103.539 94.7037H25.6936C24.0584 94.7037 22.736 93.3855 22.736 91.7556V42.273C22.736 40.6431 24.0584 39.325 25.6936 39.325H103.539C105.174 39.325 106.496 40.6431 106.496 42.273V91.7505C106.496 93.3804 105.174 94.7037 103.539 94.7037Z" fill="white"/>
<path d="M88.4896 109.204H40.7429V108.606C40.7429 106.542 42.4241 104.866 44.495 104.866H84.7323C86.8032 104.866 88.4844 106.542 88.4844 108.606V109.204H88.4896Z" fill="#F28773"/>
<g opacity="0.35">
<g opacity="0.35">
<g opacity="0.35">
<path opacity="0.35" d="M98.777 82.4211H45.31C43.8901 82.4211 42.7419 81.2766 42.7419 79.8614V45.7114C42.7419 44.2962 43.8901 43.1517 45.31 43.1517H98.7821C100.202 43.1517 101.35 44.2962 101.35 45.7114V79.8614C101.345 81.2715 100.197 82.4211 98.777 82.4211Z" fill="white"/>
</g>
</g>
</g>
<path opacity="0.55" d="M95.9429 92.2849H31.3523C29.637 92.2849 28.25 90.9024 28.25 89.1927V47.9442C28.25 46.2345 29.637 44.8519 31.3523 44.8519H95.9491C97.6643 44.8519 99.0513 46.2345 99.0513 47.9442V89.1927C99.0451 90.8962 97.6581 92.2849 95.9429 92.2849Z" fill="#F8D7DA"/>
<path d="M97.3794 90.4332H32.7889C31.0736 90.4332 29.6866 89.0507 29.6866 87.341V46.0925C29.6866 44.3828 31.0736 43.0002 32.7889 43.0002H97.3856C99.1009 43.0002 100.488 44.3828 100.488 46.0925V87.341C100.482 89.0507 99.0947 90.4332 97.3794 90.4332Z" fill="#F28773"/>
<path d="M66.7096 77.1014H64.5919V79.2123H66.7096V77.1014Z" fill="#F8D7DA"/>
<path d="M66.7096 80.8047H64.5919V82.9156H66.7096V80.8047Z" fill="#F8D7DA"/>
<path d="M74.0039 81.712H67.2916V82.9094H74.0039V81.712Z" fill="white"/>
<path d="M74.0039 78.0149H67.2916V79.2123H74.0039V78.0149Z" fill="white"/>
<path d="M79.1621 77.1014H77.0443V79.2123H79.1621V77.1014Z" fill="#F8D7DA"/>
<path d="M79.1621 80.8047H77.0443V82.9156H79.1621V80.8047Z" fill="#F8D7DA"/>
<path d="M86.4564 81.712H79.7441V82.9094H86.4564V81.712Z" fill="white"/>
<path d="M86.4564 78.0149H79.7441V79.2123H86.4564V78.0149Z" fill="white"/>
<path d="M95.2553 52.0002H34.25V53.2594H95.2553V52.0002Z" fill="white"/>
<path d="M48.195 56.9493C46.263 56.9493 44.4239 57.3876 42.7706 58.1467L48.195 69.9356H35.1728C35.1728 77.0953 41.0058 82.9156 48.195 82.9156C55.4027 82.9156 61.2295 77.0953 61.2295 69.9356C61.2233 62.7635 55.3965 56.9493 48.195 56.9493Z" fill="white"/>
<path d="M40.6529 56.9493C36.1822 59.0047 33.0613 63.5042 33.0613 68.7382H46.0896L40.6529 56.9493Z" fill="#F8D7DA"/>
<path d="M97.3794 43.0002H32.7889C31.0736 43.0002 29.6866 44.3828 29.6866 46.0925V48.7959H100.488V46.0925C100.482 44.3828 99.0947 43.0002 97.3794 43.0002Z" fill="#F8D7DA"/>
<path d="M91.3792 46.0061C91.3792 46.4998 90.9767 46.8948 90.4875 46.8948C89.9922 46.8948 89.5959 46.4937 89.5959 46.0061C89.5959 45.5123 89.9984 45.1173 90.4875 45.1173C90.9767 45.1111 91.3792 45.5123 91.3792 46.0061Z" fill="white"/>
<path d="M95.0202 46.0061C95.0202 46.4998 94.6177 46.8948 94.1286 46.8948C93.6332 46.8948 93.2369 46.4937 93.2369 46.0061C93.2369 45.5123 93.6394 45.1173 94.1286 45.1173C94.6239 45.1111 95.0202 45.5123 95.0202 46.0061Z" fill="white"/>
<path d="M98.6674 46.0061C98.6674 46.4998 98.2649 46.8948 97.7758 46.8948C97.2804 46.8948 96.8841 46.4937 96.8841 46.0061C96.8841 45.5123 97.2866 45.1173 97.7758 45.1173C98.2649 45.1111 98.6674 45.5123 98.6674 46.0061Z" fill="white"/>
<path d="M115.984 107.07H92.5612C90.8834 107.07 89.5246 105.716 89.5246 104.044V76.0971C89.5246 74.4247 90.8834 73.0703 92.5612 73.0703H115.984C117.662 73.0703 119.021 74.4247 119.021 76.0971V104.044C119.021 105.716 117.662 107.07 115.984 107.07Z" fill="#F8D7DA"/>
<path d="M116.426 83.614H93.0287C92.6005 83.614 92.2553 83.2699 92.2553 82.8431V77.4037C92.2553 76.9769 92.6005 76.6328 93.0287 76.6328H116.426C116.854 76.6328 117.199 76.9769 117.199 77.4037V82.8431C117.199 83.2699 116.854 83.614 116.426 83.614Z" fill="#F28773"/>
<path d="M97.8916 90.5254H93.0287C92.6005 90.5254 92.2553 90.1814 92.2553 89.7546V86.8672C92.2553 86.4404 92.6005 86.0963 93.0287 86.0963H97.8916C98.3198 86.0963 98.6649 86.4404 98.6649 86.8672V89.7546C98.6693 90.177 98.3198 90.5254 97.8916 90.5254Z" fill="#F28773"/>
<path d="M107.159 90.5254H102.296C101.868 90.5254 101.522 90.1814 101.522 89.7546V86.8672C101.522 86.4404 101.868 86.0963 102.296 86.0963H107.159C107.587 86.0963 107.932 86.4404 107.932 86.8672V89.7546C107.932 90.177 107.587 90.5254 107.159 90.5254Z" fill="#F28773"/>
<path d="M116.426 90.5254H111.563C111.135 90.5254 110.789 90.1814 110.789 89.7546V86.8672C110.789 86.4404 111.135 86.0963 111.563 86.0963H116.426C116.854 86.0963 117.199 86.4404 117.199 86.8672V89.7546C117.199 90.177 116.854 90.5254 116.426 90.5254Z" fill="#F28773"/>
<path d="M97.8916 97.6503H93.0287C92.6005 97.6503 92.2553 97.3062 92.2553 96.8795V93.992C92.2553 93.5652 92.6005 93.2212 93.0287 93.2212H97.8916C98.3198 93.2212 98.6649 93.5652 98.6649 93.992V96.8795C98.6693 97.3062 98.3198 97.6503 97.8916 97.6503Z" fill="#F28773"/>
<path d="M107.159 97.6503H102.296C101.868 97.6503 101.522 97.3062 101.522 96.8795V93.992C101.522 93.5652 101.868 93.2212 102.296 93.2212H107.159C107.587 93.2212 107.932 93.5652 107.932 93.992V96.8795C107.932 97.3062 107.587 97.6503 107.159 97.6503Z" fill="#F28773"/>
<path d="M97.8916 104.775H93.0287C92.6005 104.775 92.2553 104.431 92.2553 104.004V101.117C92.2553 100.69 92.6005 100.346 93.0287 100.346H97.8916C98.3198 100.346 98.6649 100.69 98.6649 101.117V104.004C98.6693 104.431 98.3198 104.775 97.8916 104.775Z" fill="#F28773"/>
<path d="M107.159 104.775H102.296C101.868 104.775 101.522 104.431 101.522 104.004V101.117C101.522 100.69 101.868 100.346 102.296 100.346H107.159C107.587 100.346 107.932 100.69 107.932 101.117V104.004C107.932 104.431 107.587 104.775 107.159 104.775Z" fill="#F28773"/>
<path d="M116.426 104.775H111.563C111.135 104.775 110.789 104.431 110.789 104.004V93.9878C110.789 93.561 111.135 93.2169 111.563 93.2169H116.426C116.854 93.2169 117.199 93.561 117.199 93.9878V104.004C117.199 104.431 116.854 104.775 116.426 104.775Z" fill="#F28773"/>
<path d="M95.2435 59.0002H64.25V60.6618H95.2435V59.0002Z" fill="white"/>
<path d="M95.2435 62.183H64.25V63.8445H95.2435V62.183Z" fill="white"/>
<path d="M95.3259 65.3658H64.25V67.0274H95.3259V65.3658Z" fill="white"/>
<path d="M77.6891 68.62H64.25V70.2815H77.6891V68.62Z" fill="white"/>
</svg>
