<svg width="96" height="108" viewBox="0 0 96 108" fill="none" xmlns="http://www.w3.org/2000/svg">
<path opacity="0.3" d="M50.75 102C75.296 102 95.1944 82.1018 95.1944 57.5558C95.1944 33.0098 75.296 13.1113 50.75 13.1113C26.204 13.1113 6.30556 33.0098 6.30556 57.5558C6.30556 82.1018 26.204 102 50.75 102Z" fill="#EA868F"/>
<path opacity="0.3" d="M86.1667 17.278C90.3855 17.278 93.8056 13.858 93.8056 9.63913C93.8056 5.42029 90.3855 2.00024 86.1667 2.00024C81.9478 2.00024 78.5278 5.42029 78.5278 9.63913C78.5278 13.858 81.9478 17.278 86.1667 17.278Z" fill="#EA868F"/>
<path opacity="0.3" d="M14.3013 108C16.7866 108 18.8013 105.986 18.8013 103.5C18.8013 101.015 16.7866 99.0002 14.3013 99.0002C11.816 99.0002 9.80128 101.015 9.80128 103.5C9.80128 105.986 11.816 108 14.3013 108Z" fill="#EA868F"/>
<path opacity="0.3" d="M86.3013 104C87.682 104 88.8013 102.881 88.8013 101.5C88.8013 100.12 87.682 99.0002 86.3013 99.0002C84.9206 99.0002 83.8013 100.12 83.8013 101.5C83.8013 102.881 84.9206 104 86.3013 104Z" fill="#EA868F"/>
<path d="M30.5844 22.0497C30.3484 21.1354 29.9881 20.2693 29.5226 19.4769L30.6035 17.8441L29.1049 16.3364L27.6062 14.8287L25.9832 15.9162C25.1925 15.4478 24.3347 15.0853 23.426 14.8479L23.0402 12.9264H20.9198H18.7994L18.4135 14.8479C17.5048 15.0853 16.6439 15.4478 15.8563 15.9162L14.2333 14.8287L12.7347 16.3364L11.236 17.8441L12.317 19.4769C11.8514 20.2725 11.4911 21.1354 11.2552 22.0497L9.3484 22.4378V24.5711V26.7043L11.2584 27.0925C11.4943 28.0068 11.8546 28.8729 12.3202 29.6652L11.2392 31.2981L12.7379 32.8058L14.2365 34.3135L15.8595 33.226C16.6503 33.6944 17.508 34.0569 18.4167 34.2942L18.8025 36.2158H20.923H23.0434L23.4292 34.2942C24.3379 34.0569 25.1988 33.6944 25.9864 33.226L27.6094 34.3135L29.108 32.8058L30.6067 31.2981L29.5257 29.6652C29.9913 28.8697 30.3516 28.0068 30.5875 27.0925L32.4975 26.7043V24.5711V22.4378L30.5844 22.0497ZM20.923 32.0391C16.8224 32.0391 13.4967 28.6932 13.4967 24.5679C13.4967 20.4425 16.8224 17.0967 20.923 17.0967C25.0235 17.0967 28.3492 20.4425 28.3492 24.5679C28.346 28.6932 25.0235 32.0391 20.923 32.0391Z" fill="#EA868F"/>
<path d="M13.9686 7.87071C13.8188 7.28045 13.586 6.72549 13.2863 6.21543L13.9814 5.16324L13.0184 4.19445L12.0555 3.22566L11.0096 3.92499C10.5026 3.62344 9.94783 3.38927 9.36432 3.23849L9.11561 2.00024H7.7509H6.38618L6.13747 3.23849C5.55077 3.38927 4.99915 3.62344 4.49217 3.92499L3.4495 3.22246L2.48655 4.19124L1.5236 5.16003L2.21871 6.21543C1.91898 6.72549 1.68621 7.28366 1.53635 7.87071L0.305557 8.12092V9.49391V10.8669L1.53635 11.1171C1.68621 11.7074 1.91898 12.2623 2.21871 12.7724L1.5236 13.8246L2.48655 14.7934L3.4495 15.7622L4.49535 15.0596C5.00234 15.3612 5.55715 15.5953 6.14066 15.7461L6.38937 16.9844H7.75408H9.1188L9.36751 15.7461C9.95102 15.5953 10.5058 15.3612 11.0128 15.0596L12.0587 15.7589L13.0216 14.7902L13.9846 13.8214L13.2895 12.7692C13.5892 12.2591 13.822 11.7009 13.9718 11.1139L15.2026 10.8637V9.4907V8.11772L13.9686 7.87071ZM7.7509 14.2961C5.11394 14.2961 2.9744 12.1436 2.9744 9.4907C2.9744 6.83776 5.11394 4.68526 7.7509 4.68526C10.3879 4.68526 12.5274 6.83776 12.5274 9.4907C12.5306 12.1468 10.391 14.2961 7.7509 14.2961Z" fill="#EA868F"/>
<path d="M86.3056 13.0695C73.8478 13.8811 73.6086 28.1306 73.6086 28.1306V96.0002H23.583V28.1306C23.583 28.1306 23.5256 13.9292 36.3405 13.0695H86.3056Z" fill="#F28773"/>
<path d="M64.5148 30.7996H30.1546V33.8503H64.5148V30.7996Z" fill="#F8F8F8"/>
<path d="M59.496 37.8538H30.1546V40.0159H59.496V37.8538Z" fill="#F8F8F8"/>
<path d="M44.9018 43.5574H30.1546V46.7653H44.9018V43.5574Z" fill="#F8F8F8"/>
<path d="M64.5148 43.5574H49.2606V46.7653H64.5148V43.5574Z" fill="#F8F8F8"/>
<path d="M64.3056 50.0002H30.3056V52.0002H64.3056V50.0002Z" fill="#F8F8F8"/>
<path d="M65.3056 55.0002H30.3056V57.0002H65.3056V55.0002Z" fill="#F8F8F8"/>
<path d="M61.9894 61.1753H30.1546V62.4456H61.9894V61.1753Z" fill="#F8F8F8"/>
<path d="M45.0039 73.9875H30.0526V66.7954H45.0039V73.9875ZM30.2535 73.7822H44.7998V66.9943H30.2535V73.7822Z" fill="#F8F8F8"/>
<path d="M61.9894 66.8949H48.5974V68.547H61.9894V66.8949Z" fill="#F8F8F8"/>
<path d="M56.3903 78.3342H30.1546V79.6046H56.3903V78.3342Z" fill="#F8F8F8"/>
<path d="M45.2334 84.054H30.1546V85.3243H45.2334V84.054Z" fill="#F8F8F8"/>
<path d="M68.5165 87.4127H59.091V77.9302H68.5165V87.4127ZM59.9743 86.5209H67.6332V78.8156H59.9743V86.5209Z" fill="#F8F8F8"/>
<path d="M63.9504 84.6539L60.6375 81.5101L61.6451 80.4323L64.0174 82.681L69.202 78.3953L70.1363 79.5405L63.9504 84.6539Z" fill="#F8F8F8"/>
<path d="M87.3056 51.0002H68.3056V65.0444V68.0002L71.2058 65.0444H87.3056V51.0002Z" fill="#EA868F"/>
<path d="M80.1482 56.0592C80.0762 55.9781 79.9744 55.8928 79.8387 55.8032C79.703 55.7136 79.5419 55.6241 79.3638 55.5387C79.1815 55.4534 78.9864 55.3852 78.7702 55.3212C78.554 55.2615 78.3335 55.2231 78.1045 55.206L78.096 57.6589L78.3207 57.7058C78.7448 57.8082 79.1264 57.9276 79.4698 58.0513C79.809 58.1793 80.1016 58.3329 80.3348 58.5163C80.568 58.6997 80.7503 58.9215 80.8818 59.1903C81.009 59.4548 81.0726 59.779 81.0726 60.1586C81.0726 60.5767 80.9963 60.935 80.8436 61.2293C80.6952 61.5237 80.4874 61.7711 80.2246 61.9673C79.9617 62.1636 79.6521 62.3129 79.3045 62.411C78.9525 62.5091 78.5794 62.5603 78.1766 62.5688L78.1723 63.8144H77.5575L77.5618 62.5475C76.9978 62.5048 76.4593 62.3939 75.9463 62.2062C75.4375 62.0185 74.971 61.7583 74.547 61.4256L75.1534 60.2909C75.2382 60.3847 75.3654 60.4914 75.5307 60.6023C75.6961 60.7132 75.8869 60.8198 76.1074 60.9265C76.3279 61.0289 76.5696 61.1227 76.8325 61.1995C77.0954 61.2805 77.3667 61.336 77.6508 61.3701L77.6593 58.9173C77.6126 58.9002 77.5618 58.8874 77.5109 58.8746C77.46 58.8618 77.4091 58.849 77.3625 58.832C76.9469 58.721 76.5823 58.6016 76.2728 58.4779C75.9632 58.3542 75.7046 58.2049 75.5011 58.03C75.2975 57.8551 75.1449 57.6503 75.0389 57.4157C74.9329 57.1811 74.882 56.8995 74.882 56.5668C74.882 56.1786 74.9498 55.8373 75.0855 55.5345C75.2212 55.2359 75.4078 54.9757 75.6537 54.7581C75.8996 54.5405 76.1837 54.3742 76.5102 54.2505C76.8367 54.131 77.1971 54.0542 77.5914 54.0244L77.5957 52.8257L78.2105 52.8299L78.2063 54.0286C78.7151 54.0628 79.19 54.1652 79.6182 54.3401C80.0507 54.5149 80.4323 54.724 80.7588 54.9714L80.1482 56.0592ZM76.2558 56.3535C76.2558 56.6862 76.3703 56.9337 76.5993 57.1C76.8325 57.2664 77.1802 57.4157 77.6508 57.5437L77.6593 55.206C77.1802 55.2273 76.824 55.3383 76.5993 55.5387C76.3745 55.7435 76.26 56.0122 76.2558 56.3535ZM79.6521 60.2994C79.6521 59.9496 79.5165 59.6894 79.2409 59.5102C78.9652 59.3311 78.5836 59.169 78.0875 59.0282L78.0791 61.3744C78.5836 61.3659 78.9695 61.2763 79.2409 61.0928C79.5122 60.9137 79.6521 60.6492 79.6521 60.2994Z" fill="white"/>
<path d="M56.5646 9.14126L51.6329 6.27588V8.1669H44.3056V10.1156H51.6329V12.0002L56.5646 9.14126Z" fill="#EA868F"/>
<path d="M44.3056 2.85922L49.2372 5.7246V3.83358H56.5646V1.88486H49.2372V0.000244141L44.3056 2.85922Z" fill="#EA868F"/>
</svg>
