<svg xmlns="http://www.w3.org/2000/svg" xmlns:xlink="http://www.w3.org/1999/xlink" width="2000" zoomAndPan="magnify" viewBox="0 0 1500 1499.999933" height="2000" preserveAspectRatio="xMidYMid meet" version="1.0"><defs><clipPath id="97319b685b"><path d="M 253 407.457031 L 1247 407.457031 L 1247 532 L 253 532 Z M 253 407.457031 " clip-rule="nonzero"/></clipPath></defs><g clip-path="url(#97319b685b)"><path fill="#000000" d="M 1184.351562 407.753906 L 315.835938 407.753906 C 281.625 407.753906 253.800781 435.558594 253.800781 469.746094 C 253.800781 503.9375 281.625 531.742188 315.835938 531.742188 L 1184.351562 531.742188 C 1218.550781 531.742188 1246.386719 503.9375 1246.386719 469.746094 C 1246.386719 435.558594 1218.550781 407.753906 1184.351562 407.753906 Z M 1184.351562 407.753906 " fill-opacity="1" fill-rule="nonzero"/></g><path fill="#000000" d="M 1184.351562 687.835938 L 315.835938 687.835938 C 281.625 687.835938 253.800781 715.640625 253.800781 749.832031 C 253.800781 784.023438 281.625 811.828125 315.835938 811.828125 L 1184.351562 811.828125 C 1218.550781 811.828125 1246.386719 784.023438 1246.386719 749.832031 C 1246.386719 715.640625 1218.550781 687.835938 1184.351562 687.835938 Z M 1184.351562 687.835938 " fill-opacity="1" fill-rule="nonzero"/><path fill="#000000" d="M 1184.351562 967.921875 L 315.835938 967.921875 C 281.625 967.921875 253.800781 995.726562 253.800781 1029.917969 C 253.800781 1064.109375 281.625 1091.914062 315.835938 1091.914062 L 1184.351562 1091.914062 C 1218.550781 1091.914062 1246.386719 1064.109375 1246.386719 1029.917969 C 1246.386719 995.726562 1218.550781 967.921875 1184.351562 967.921875 Z M 1184.351562 967.921875 " fill-opacity="1" fill-rule="nonzero"/></svg>