<svg width="94" height="106" viewBox="0 0 94 106" fill="none" xmlns="http://www.w3.org/2000/svg">
<path opacity="0.3" d="M45.1944 100C69.7404 100 89.6389 80.1018 89.6389 55.5558C89.6389 31.0098 69.7404 11.1113 45.1944 11.1113C20.6485 11.1113 0.75 31.0098 0.75 55.5558C0.75 80.1018 20.6485 100 45.1944 100Z" fill="#EA868F"/>
<path opacity="0.3" d="M80.6111 15.278C84.83 15.278 88.25 11.858 88.25 7.63913C88.25 3.42029 84.83 0.000244141 80.6111 0.000244141C76.3923 0.000244141 72.9722 3.42029 72.9722 7.63913C72.9722 11.858 76.3923 15.278 80.6111 15.278Z" fill="#EA868F"/>
<path opacity="0.3" d="M8.74573 106C11.231 106 13.2457 103.986 13.2457 101.5C13.2457 99.015 11.231 97.0002 8.74573 97.0002C6.26045 97.0002 4.24573 99.015 4.24573 101.5C4.24573 103.986 6.26045 106 8.74573 106Z" fill="#EA868F"/>
<path opacity="0.3" d="M80.7457 102C82.1264 102 83.2457 100.881 83.2457 99.5002C83.2457 98.1195 82.1264 97.0002 80.7457 97.0002C79.365 97.0002 78.2457 98.1195 78.2457 99.5002C78.2457 100.881 79.365 102 80.7457 102Z" fill="#EA868F"/>
<g clip-path="url(#clip0_19_134633)">
<path d="M77.75 18.0002H12.75V95.0002H77.75V18.0002Z" fill="#F28773"/>
<path d="M74.2879 36.6638H16.2121V61.2252H74.2879V36.6638Z" fill="white"/>
<path d="M77.75 24.7991H12.75V32.2551H77.75V24.7991Z" fill="#F8D7DA"/>
<path d="M77.75 18.0002H12.75V24.7991H77.75V18.0002Z" fill="#F28773"/>
<path d="M64.0184 21.3996C64.0184 22.2119 63.3557 22.8692 62.5368 22.8692C61.7178 22.8692 61.0551 22.2095 61.0551 21.3996C61.0551 20.5873 61.7203 19.9276 62.5368 19.9276C63.3557 19.9276 64.0184 20.5873 64.0184 21.3996Z" fill="white"/>
<path d="M68.6345 21.3996C68.6345 22.2119 67.9718 22.8692 67.1529 22.8692C66.3339 22.8692 65.6688 22.2095 65.6688 21.3996C65.6688 20.5873 66.3339 19.9276 67.1529 19.9276C67.9694 19.9276 68.6345 20.5873 68.6345 21.3996Z" fill="white"/>
<path d="M73.2481 21.3996C73.2481 22.2119 72.5854 22.8692 71.7665 22.8692C70.9475 22.8692 70.2824 22.2095 70.2824 21.3996C70.2824 20.5873 70.9475 19.9276 71.7665 19.9276C72.5854 19.9276 73.2481 20.5873 73.2481 21.3996Z" fill="white"/>
<path d="M74.134 63.6892H16.2121V65.3508H74.134V63.6892Z" fill="white"/>
<path d="M74.134 66.8719H16.2121V68.5335H74.134V66.8719Z" fill="white"/>
<path d="M74.2879 70.0548H16.2121V71.7164H74.2879V70.0548Z" fill="white"/>
<path d="M41.3276 73.309H16.2121V74.9705H41.3276V73.309Z" fill="white"/>
<path d="M43.2484 79.9109H16.2121V90.7048H43.2484V79.9109Z" fill="white"/>
<path d="M74.2879 79.9109H47.254V90.7048H74.2879V79.9109Z" fill="white"/>
<path d="M72.099 26.3203H26.4816V30.628H72.099V26.3203Z" fill="white"/>
<path d="M24.4639 26.3203H16.2121V30.628H24.4639V26.3203Z" fill="#F28773"/>
<path d="M62.5268 39.3543C62.44 39.2682 62.3109 39.2411 62.1992 39.2878L57.0868 41.3063C56.99 41.3432 56.923 41.4245 56.9007 41.5254C56.8808 41.6239 56.9106 41.7297 56.9826 41.7986L58.0249 42.8325L53.9598 46.8645L52.2821 45.2005C52.0091 44.9297 51.5649 44.9297 51.2894 45.2005L45.9908 50.4559L44.3131 48.7919C44.0401 48.5211 43.5959 48.5211 43.3229 48.7919L38.0243 54.0473L36.3467 52.3809C36.0737 52.1126 35.6294 52.1126 35.354 52.3809L29.5516 58.136C29.2761 58.4092 29.2761 58.8474 29.5516 59.1206C29.6881 59.256 29.8692 59.3249 30.0479 59.3249C30.2266 59.3249 30.4078 59.2585 30.5443 59.1206L35.8503 53.8578L37.4386 55.4332C37.461 55.4677 37.4883 55.4997 37.5181 55.5292C37.6546 55.6646 37.8332 55.7335 38.0144 55.7335C38.1931 55.7335 38.3743 55.6646 38.5108 55.5292L43.8168 50.2664L45.4051 51.8418C45.4275 51.8762 45.4547 51.9082 45.4845 51.9378C45.621 52.0732 45.8022 52.1421 45.9784 52.1421C46.1571 52.1421 46.3383 52.0732 46.4748 51.9378L51.7808 46.675L53.3691 48.2504C53.3939 48.2824 53.4187 48.3168 53.4485 48.3439C53.585 48.4793 53.7662 48.5482 53.9449 48.5482C54.1236 48.5482 54.3023 48.4793 54.4412 48.3439L59.0102 43.8146L60.05 44.846C60.1071 44.9027 60.184 44.9347 60.2635 44.9347C60.2833 44.9347 60.3032 44.9297 60.3255 44.9273C60.4248 44.9076 60.5092 44.8387 60.5464 44.7451L62.5839 39.6768C62.6385 39.566 62.6112 39.4405 62.5268 39.3543Z" fill="#F28773"/>
</g>
<rect x="80.6119" y="72.5199" width="5.61364" height="15.0729" fill="#EA868F"/>
<rect x="73.2745" y="67.7601" width="5.61364" height="19.8327" fill="#EA868F"/>
<rect x="65.75" y="77.3459" width="5.80076" height="10.2469" fill="#EA868F"/>
<rect x="87.9492" y="63.0002" width="5.80076" height="24.5926" fill="#EA868F"/>
<defs>
<clipPath id="clip0_19_134633">
<rect width="65" height="77" fill="white" transform="translate(12.75 18.0002)"/>
</clipPath>
</defs>
</svg>
